<svg width="14" height="15" viewBox="0 0 14 15" fill="none" xmlns="http://www.w3.org/2000/svg">
<path fill-rule="evenodd" clip-rule="evenodd" d="M5.76256 2.51256C6.09075 2.18437 6.53587 2 7 2C7.46413 2 7.90925 2.18437 8.23744 2.51256C8.4448 2.71993 8.59475 2.97397 8.67705 3.25H5.32295C5.40525 2.97397 5.5552 2.71993 5.76256 2.51256ZM3.78868 3.25C3.89405 2.57321 4.21153 1.94227 4.7019 1.4519C5.3114 0.84241 6.13805 0.5 7 0.5C7.86195 0.5 8.6886 0.84241 9.2981 1.4519C9.78847 1.94227 10.106 2.57321 10.2113 3.25H13C13.4142 3.25 13.75 3.58579 13.75 4C13.75 4.41422 13.4142 4.75 13 4.75H12V13C12 13.3978 11.842 13.7794 11.5607 14.0607C11.2794 14.342 10.8978 14.5 10.5 14.5H3.5C3.10217 14.5 2.72064 14.342 2.43934 14.0607C2.15804 13.7794 2 13.3978 2 13V4.75H1C0.585786 4.75 0.25 4.41422 0.25 4C0.25 3.58579 0.585786 3.25 1 3.25H3.78868ZM5 6.37646C5.34518 6.37646 5.625 6.65629 5.625 7.00146V11.003C5.625 11.3481 5.34518 11.628 5 11.628C4.65482 11.628 4.375 11.3481 4.375 11.003V7.00146C4.375 6.65629 4.65482 6.37646 5 6.37646ZM9.625 7.00146C9.625 6.65629 9.34518 6.37646 9 6.37646C8.65482 6.37646 8.375 6.65629 8.375 7.00146V11.003C8.375 11.3481 8.65482 11.628 9 11.628C9.34518 11.628 9.625 11.3481 9.625 11.003V7.00146Z" fill="#FF3B30"/>
</svg>
